<svg height="800" viewBox="0 0 463 463" width="800" xmlns="http://www.w3.org/2000/svg"><path d="m259.476 280.364v-32.864c0-12.958-10.542-23.5-23.5-23.5s-23.5 10.542-23.5 23.5v29.672c0 35.757-13.173 70.087-37.094 96.665l-32.981 36.646c-2.771 3.079-2.521 7.821.558 10.593 3.078 2.771 7.82 2.521 10.592-.558l32.981-36.646c26.403-29.338 40.944-67.231 40.944-106.7v-29.672c0-4.687 3.813-8.5 8.5-8.5s8.5 3.813 8.5 8.5v32.864c0 44.003-16.301 86.167-45.901 118.727l-32.149 35.364c-2.786 3.064-2.56 7.809.505 10.595 1.437 1.307 3.242 1.95 5.042 1.95 2.04 0 4.072-.827 5.552-2.455l32.148-35.364c32.116-35.327 49.803-81.075 49.803-128.817z"/><path d="m291.476 247.5c0-30.603-24.897-55.5-55.5-55.5s-55.5 24.897-55.5 55.5v29.672c0 27.839-10.256 54.566-28.879 75.258l-23.447 26.053c-2.771 3.079-2.521 7.821.558 10.593 3.079 2.771 7.82 2.519 10.592-.558l23.447-26.053c21.106-23.451 32.73-53.742 32.73-85.293v-29.672c0-22.332 18.168-40.5 40.5-40.5s40.5 18.168 40.5 40.5v32.864c0 51.979-19.256 101.789-54.223 140.252l-27.125 29.839c-2.787 3.064-2.561 7.809.504 10.595 1.437 1.307 3.242 1.95 5.042 1.95 2.04 0 4.072-.827 5.552-2.455l27.126-29.839c37.481-41.23 58.123-94.622 58.123-150.342z"/><path d="m323.476 247.5c0-48.248-39.252-87.5-87.5-87.5s-87.5 39.252-87.5 87.5v29.672c0 19.92-7.339 39.045-20.665 53.851l-21.112 23.458c-2.771 3.079-2.521 7.821.558 10.593 3.078 2.771 7.821 2.519 10.592-.558l21.112-23.458c15.809-17.565 24.515-40.254 24.515-63.886v-29.672c0-39.977 32.523-72.5 72.5-72.5s72.5 32.523 72.5 72.5v32.864c0 59.958-22.212 117.412-62.545 161.777l-7.507 8.258c-2.786 3.065-2.56 7.809.505 10.595 1.437 1.306 3.243 1.95 5.042 1.95 2.04 0 4.072-.827 5.552-2.455l7.506-8.258c42.848-47.133 66.446-108.169 66.446-171.867v-32.864z"/><path d="m116.476 247.5c0 4.143 3.358 7.5 7.5 7.5s7.5-3.357 7.5-7.5c0-25.255 9.169-49.651 25.819-68.695 16.495-18.867 39.134-31.205 63.746-34.741 4.1-.589 6.946-4.391 6.357-8.49-.589-4.1-4.394-6.942-8.49-6.357-28.16 4.046-54.052 18.15-72.906 39.716-19.04 21.777-29.526 49.68-29.526 78.567z"/><path d="m131.476 277.172c0-4.143-3.358-7.5-7.5-7.5s-7.5 3.357-7.5 7.5c0 12.002-4.421 23.523-12.449 32.443l-18.779 20.867c-2.771 3.078-2.521 7.82.558 10.592 1.434 1.29 3.227 1.925 5.015 1.925 2.052 0 4.097-.838 5.577-2.483l18.779-20.866c10.51-11.679 16.299-26.764 16.299-42.478z"/><path d="m340.755 344.123c-4.009-1.044-8.105 1.351-9.155 5.357-2.769 10.579-6.213 21.096-10.24 31.258-1.526 3.851.359 8.21 4.21 9.735.907.359 1.841.529 2.761.529 2.985 0 5.808-1.795 6.975-4.739 4.249-10.725 7.884-21.822 10.806-32.986 1.048-4.006-1.351-8.105-5.357-9.154z"/><path d="m315.791 158.632c-3.081-2.771-7.823-2.517-10.592.563s-2.517 7.822.563 10.591c22.061 19.832 34.713 48.157 34.713 77.714v32.864c0 12.473-.86 25.042-2.557 37.359-.565 4.104 2.303 7.888 6.406 8.453.347.048.692.071 1.033.071 3.688 0 6.903-2.722 7.42-6.478 1.79-12.993 2.698-26.251 2.698-39.406v-32.863c.001-33.805-14.464-66.196-39.684-88.868z"/><path d="m280.729 153.076c1.041.496 2.138.73 3.219.73 2.803 0 5.492-1.579 6.777-4.278 1.781-3.739.192-8.215-3.547-9.995-10.806-5.145-22.291-8.616-34.136-10.317-4.106-.585-7.901 2.258-8.49 6.357s2.257 7.901 6.357 8.49c10.348 1.487 20.38 4.519 29.82 9.013z"/><path d="m235.976 96c-2.806 0-5.644.078-8.437.232-4.136.228-7.304 3.766-7.076 7.901.229 4.136 3.763 7.321 7.902 7.075 2.519-.139 5.079-.209 7.61-.209 75.266 0 136.5 61.233 136.5 136.5v32.864c0 4.143 3.358 7.5 7.5 7.5s7.5-3.357 7.5-7.5v-32.863c.001-83.537-67.962-151.5-151.499-151.5z"/><path d="m153.972 136.693c1.477 0 2.97-.436 4.275-1.343 12.478-8.677 26.182-15.155 40.733-19.258 3.987-1.124 6.308-5.268 5.184-9.254s-5.269-6.304-9.254-5.184c-16.16 4.556-31.376 11.749-45.226 21.379-3.401 2.365-4.241 7.039-1.876 10.439 1.457 2.098 3.791 3.221 6.164 3.221z"/><path d="m99.476 277.172v-29.672c0-34.89 13.213-68.118 37.205-93.565 2.841-3.014 2.702-7.76-.312-10.602s-7.761-2.701-10.602.312c-26.627 28.241-41.291 65.125-41.291 103.855v29.672c0 4.083-1.504 8.002-4.234 11.035l-9.248 10.275c-2.771 3.079-2.521 7.821.558 10.592 1.433 1.291 3.227 1.926 5.015 1.926 2.052 0 4.096-.837 5.577-2.482l9.248-10.275c5.213-5.794 8.084-13.277 8.084-21.071z"/><path d="m409.951 189.104c-8.226-24.446-21.299-46.531-38.856-65.642-2.803-3.05-7.547-3.252-10.597-.449s-3.251 7.547-.449 10.598c16.127 17.554 28.134 37.834 35.686 60.276 1.054 3.133 3.976 5.11 7.107 5.11.793 0 1.6-.127 2.393-.394 3.925-1.321 6.037-5.574 4.716-9.499z"/><path d="m295.247 73.822c-3.917-1.341-8.183.748-9.524 4.668-1.341 3.919.749 8.183 4.668 9.523 16.538 5.659 32.065 13.857 46.15 24.369 1.347 1.005 2.92 1.489 4.48 1.489 2.286 0 4.544-1.041 6.017-3.015 2.478-3.319 1.794-8.019-1.525-10.496-15.337-11.444-32.249-20.374-50.266-26.538z"/><path d="m119.442 125.908c31.549-30.249 72.935-46.908 116.534-46.908 8.096 0 16.237.583 24.196 1.731 4.103.598 7.903-2.252 8.495-6.352s-2.251-7.902-6.351-8.494c-8.668-1.25-17.53-1.885-26.34-1.885-47.487 0-92.56 18.141-126.915 51.081-34.248 32.838-54.277 76.905-56.397 124.084-.186 4.138 3.018 7.644 7.155 7.829.115.006.229.008.343.008 3.987 0 7.306-3.14 7.487-7.163 1.945-43.312 20.339-83.773 51.793-113.931z"/><path d="m235.976 32c-16.772 0-33.485 1.944-49.674 5.778-4.031.954-6.524 4.996-5.57 9.026.955 4.03 4.997 6.524 9.027 5.569 15.058-3.564 30.607-5.373 46.217-5.373 54.996 0 106.332 21.911 144.55 61.695 1.473 1.533 3.439 2.305 5.41 2.305 1.869 0 3.741-.694 5.195-2.091 2.987-2.87 3.083-7.618.213-10.604-19.913-20.729-43.304-37.036-69.522-48.465-27.156-11.838-56.039-17.84-85.846-17.84z"/><path d="m67.507 125.404c1.372 1.074 3.001 1.595 4.619 1.595 2.227 0 4.431-.987 5.91-2.876 21.375-27.302 49.515-48.717 81.377-61.932 3.826-1.587 5.642-5.975 4.055-9.801s-5.977-5.644-9.801-4.055c-34.241 14.201-64.478 37.21-87.441 66.539-2.554 3.263-1.98 7.977 1.281 10.53z"/><path d="m131.983 38.725c1.094 0 2.205-.24 3.255-.748 31.578-15.247 65.471-22.977 100.738-22.977 18.378 0 36.682 2.162 54.401 6.426 4.025.966 8.077-1.51 9.046-5.537s-1.51-8.078-5.538-9.047c-18.866-4.54-38.35-6.842-57.909-6.842-37.544 0-73.631 8.232-107.259 24.469-3.73 1.801-5.294 6.285-3.493 10.015 1.293 2.679 3.971 4.241 6.759 4.241z"/><path d="m321.724 31.383c7.732 3.079 15.385 6.619 22.746 10.52 1.119.594 2.321.875 3.505.875 2.688 0 5.287-1.449 6.633-3.99 1.939-3.66.545-8.199-3.115-10.139-7.837-4.153-15.986-7.922-24.22-11.201-3.849-1.533-8.21.345-9.743 4.192-1.532 3.848.346 8.211 4.194 9.743z"/></svg>